# AST/ASF file generated using VICON BodyLanguage
# -----------------------------------------------
:version 1.10
:name VICON
:units
  mass 1.0
  length 0.45
  angle deg
:documentation
   .ast/.asf automatically generated from VICON data using
   VICON BodyBuilder and BodyLanguage model FoxedUp or BRILLIANT.MOD
:root
   order TX TY TZ RX RY RZ
   axis XYZ
   position 0 0 0  
   orientation 0 0 0 
:bonedata
  begin
     id 1 
     name lhipjoint
     direction 0.561001 -0.76473 0.316963 
     length 2.4722 
     axis 0 0 0  XYZ
  end
  begin
     id 2 
     name lfemur
     direction 0.34202 -0.939693 0  
     length 7.59403  
     axis 0 0 20  XYZ
    dof rx ry rz
    limits (-160.0 20.0)
           (-70.0 70.0)
           (-60.0 70.0)
  end
  begin
     id 3 
     name ltibia
     direction 0.34202 -0.939693 0   
     length 7.89655   
     axis 0 0 20   XYZ
    dof rx
    limits (-10.0 170.0)
  end
  begin
     id 4 
     name lfoot
     direction 0.061296 -0.168409 0.98381   
     length 2.73287   
     axis -90 7.62852e-016 20   XYZ
    dof rx rz
    limits (-45.0 90.0)
           (-70.0 20.0)
  end
  begin
     id 5 
     name ltoes
     direction 1.53547e-011 -4.21984e-011 1   
     length 1.37057   
     axis -90 7.62852e-016 20   XYZ
    dof rx
    limits (-90.0 20.0)
  end
  begin
     id 6 
     name rhipjoint
     direction -0.559611 -0.765599 0.317323   
     length 2.46939  
     axis 0 0 0  XYZ 
  end
  begin
     id 7 
     name rfemur
     direction -0.34202 -0.939693 0   
     length 7.53712   
     axis 0 0 -20   XYZ
    dof rx ry rz
    limits (-160.0 20.0)
           (-70.0 70.0)
           (-70.0 60.0)
  end
  begin
     id 8 
     name rtibia
     direction -0.34202 -0.939693 0   
     length 8.12549   
     axis 0 0 -20   XYZ
    dof rx
    limits (-10.0 170.0)
 end
 begin
     id 9 
     name rfoot
     direction -0.066984 -0.184037 0.980634   
     length 2.67541  
     axis -90 -7.62852e-016 -20   XYZ
    dof rx rz
    limits (-45.0 90.0)
           (-20.0 70.0)
  end
  begin
     id 10 
     name rtoes
     direction -1.53549e-011 -4.21786e-011 1   
     length 1.34085   
     axis -90 -7.62852e-016 -20   XYZ
    dof rx
    limits (-90.0 20.0)
  end
  begin
     id 11 
     name lowerback
     direction -0.0522728 0.992594 -0.109658   
     length 2.05633   
     axis 0 0 0   XYZ
    dof rx ry rz
    limits (-20.0 45.0)
           (-30.0 30.0)
           (-30.0 30.0)
  end
  begin
     id 12 
     name upperback
     direction 0.00589338 0.999977 0.00335704   
     length 2.05845   
     axis 0 0 0   XYZ
    dof rx ry rz
    limits (-20.0 45.0)
           (-30.0 30.0)
           (-30.0 30.0)
  end
  begin
     id 13 
     name thorax
     direction 0.0292928 0.998059 0.0549487   
     length 2.09281   
     axis 0 0 0   XYZ
    dof rx ry rz
    limits (-20.0 45.0)
           (-30.0 30.0)
           (-30.0 30.0)
  end
  begin
     id 14 
     name lowerneck
     direction 0.0356368 0.980775 0.191858   
     length 1.84767   
     axis 0 0 0   XYZ
    dof rx ry rz
    limits (-20.0 45.0)
           (-30.0 30.0)
           (-30.0 30.0)
  end
  begin
     id 15 
     name upperneck
     direction -0.0227605 0.98931 -0.14404   
     length 1.89582   
     axis 0 0 0   XYZ
    dof rx ry rz
    limits (-20.0 45.0)
           (-30.0 30.0)
           (-30.0 30.0)
  end
  begin
     id 16
     name head
     direction -0.00932985 0.997511 -0.0698904  
     length 1.90213  
     axis 0 0 0   XYZ
    dof rx ry rz
    limits (-20.0 45.0)
           (-30.0 30.0)
           (-30.0 30.0)
  end
  begin
     id 17 
     name lclavicle
     direction 0.873442 0.479511 0.0846686  
     length 3.41193  
     axis 0 0 0   XYZ
    dof ry rz
    limits (-20.0 10.0)
           (0.0 20.0)
  end
  begin
     id 18 
     name lhumerus
     direction 1 -4.4897e-011 -5.62117e-018   
     length 5.59864   
     axis 180 -30 -90   XYZ
    dof rx ry rz
    limits (-60.0 90.0)
           (-90.0 90.0)
           (-90.0 90.0)
  end
  begin
     id 19
     name lradius
     direction 1 -4.48966e-011 -6.26295e-027   
     length 3.59542   
     axis 180 -30 -90   XYZ
    dof rx
    limits (-10.0 170.0)
  end
  begin
     id 20
     name lwrist
     direction 1 -4.48947e-011 -1.74096e-026   
     length 1.79771   
     axis 1.04567e-014 90 90   XYZ
    dof ry
    limits (-180.0 0.0)
 end
  begin
     id 21 
     name lhand
     direction 1 -4.49085e-011 -3.48469e-026   
     length 0.572014   
     axis 2.22196e-014 90 90   XYZ
    dof rx rz
    limits (-90.0 90.0)
           (-45.0 45.0)
  end
  begin
     id 22 
     name lfingers
     direction 1 -4.48884e-011 -6.96135e-026   
     length 0.461173   
     axis 4.44383e-014 90 90   XYZ
    dof rx
    limits (0.0 90.0)
  end
  begin
     id 23
     name lthumb
     direction 0.707107 -6.34976e-011 0.707107   
     length 0.662154   
     axis -90 45 -5.4397e-014   XYZ
    dof rx rz
    limits (-45.0 45.0)
           (-45.0 45.0)
  end
  begin
     id 24 
     name rclavicle
     direction -0.890242 0.443271 0.104786   
     length 3.46753  
     axis 0 0 0   XYZ 
    dof ry rz
    limits (-10.0 20.0)
           (-20.0 0.0)
  end
  begin
     id 25 
     name rhumerus
     direction -1 -4.48963e-011 -5.41723e-018  
     length 5.8094   
     axis 180 30 90   XYZ
    dof rx ry rz
    limits (-90.0 60.0)
           (-90.0 90.0)
           (-90.0 90.0)
  end
  begin
     id 26 
     name rradius
     direction -1 -4.48958e-011 -6.51059e-027   
     length 3.66953   
     axis 180 30 90   XYZ
    dof rx
    limits (-10.0 170.0)
  end
  begin
     id 27 
     name rwrist
     direction -1 -4.48975e-011 -1.74124e-026   
     length 1.83476   
     axis 1.04567e-014 -90 -90   XYZ
    dof ry
    limits (-180.0 0.0)
  end
  begin
     id 28
     name rhand
     direction -1 -4.49013e-011 -3.48326e-026   
     length 0.57843   
     axis 2.22196e-014 -90 -90   XYZ
    dof rx rz
    limits (-90.0 90.0)
           (-45.0 45.0)
  end
  begin
     id 29
     name rfingers
     direction -1 -4.49023e-011 -6.9669e-026   
     length 0.466345   
     axis 4.44383e-014 -90 -90   XYZ
    dof rx
    limits (0.0 90.0)
  end
  begin
     id 30
     name rthumb
     direction -0.707107 -6.34926e-011 0.707107   
     length 0.669581   
     axis -90 -45 5.4397e-014   XYZ
    dof rx rz
    limits (-45.0 45.0)
           (-45.0 45.0)
  end
:hierarchy
  begin
    root lhipjoint rhipjoint lowerback
    lhipjoint lfemur
    lfemur ltibia
    ltibia lfoot
    lfoot ltoes
    rhipjoint rfemur
    rfemur rtibia
    rtibia rfoot
    rfoot rtoes
    lowerback upperback
    upperback thorax
    thorax lowerneck lclavicle rclavicle
    lowerneck upperneck
    upperneck head
    lclavicle lhumerus
    lhumerus lradius
    lradius lwrist
    lwrist lhand lthumb
    lhand lfingers
    rclavicle rhumerus
    rhumerus rradius
    rradius rwrist
    rwrist rhand rthumb
    rhand rfingers
  end

#!OML:ASF H:\SkateBoarding\Project 1\Capture day 1\Session 1\Skater.ASF
:FULLY-SPECIFIED
:DEGREES
163
root 6.68048 17.4969 -14.378 22.002 11.8519 2.75672
lowerback 26.2316 5.67592 -4.89
upperback 8.32306 6.18558 1.59037
thorax -5.88281 2.97659 2.61997
lowerneck -26.1014 -6.74149 -2.06832
upperneck 25.2527 -10.1947 4.96427
head 13.2083 -3.91183 0.358054
rclavicle 2.8625e-014 -7.95139e-016
rhumerus 25.7745 -7.28693 -69.2467
rradius 24.1894
rwrist 17.8949
rhand -33.1484 -11.4664
rfingers 7.12502
rthumb -6.3575 -41.351
lclavicle 2.8625e-014 -7.95139e-016
lhumerus -23.0355 -15.215 83.3478
lradius 39.0793
lwrist 21.1351
lhand -24.2936 10.0189
lfingers 7.12502
lthumb 2.19384 39.9874
rfemur -85.3785 1.87758 1.70774
rtibia 85.8559
rfoot -9.85951 20.3848
rtoes -9.48638
lfemur -31.0702 -4.31981 -17.6967
ltibia 52.3612
lfoot -18.8869 -23.5373
ltoes 1.88261
164
root 6.67293 17.3795 -14.1175 21.6722 12.298 3.03341
lowerback 26.0966 5.59273 -5.11832
upperback 8.22552 6.02931 1.50131
thorax -5.92224 2.90699 2.7061
lowerneck -25.997 -6.71679 -1.76534
upperneck 25.6725 -10.2282 4.69209
head 13.3244 -3.92166 0.198384
rclavicle -3.97569e-014 2.78299e-014
rhumerus 25.2475 -6.49837 -68.4045
rradius 24.8029
rwrist 16.9858
rhand -33.2206 -12.0154
rfingers 7.12502
rthumb -6.42716 -41.8979
lclavicle -3.97569e-014 2.78299e-014
lhumerus -22.3369 -15.6332 82.6705
lradius 39.1346
lwrist 21.3832
lhand -23.7733 9.89649
lfingers 7.12502
lthumb 2.69629 39.8592
rfemur -84.2965 1.93875 1.88077
rtibia 84.8732
rfoot -9.99303 18.8023
rtoes -10.1093
lfemur -30.2882 -4.7705 -17.5852
ltibia 53.7057
lfoot -18.2201 -24.8916
ltoes 3.33065
165
root 6.67016 17.2677 -13.8514 21.3371 12.6465 3.26399
lowerback 25.8631 5.53283 -5.32592
upperback 8.15439 5.91528 1.43249
thorax -5.88764 2.85617 2.79668
lowerneck -25.8788 -6.64716 -1.28812
upperneck 26.0139 -10.1643 4.1192
head 13.3692 -3.91894 -0.0853386
rclavicle -4.37326e-014 -7.95139e-016
rhumerus 24.7761 -5.52487 -67.3088
rradius 25.3955
rwrist 16.0657
rhand -33.2069 -12.3512
rfingers 7.12502
rthumb -6.41391 -42.2341
lclavicle -4.37326e-014 -7.95139e-016
lhumerus -21.49 -16.1804 81.8016
lradius 39.442
lwrist 21.6693
lhand -23.2703 10.1028
lfingers 7.12502
lthumb 3.18203 40.0588
rfemur -83.3521 2.07337 2.09755
rtibia 83.8883
rfoot -9.99607 17.4132
rtoes -11.3265
lfemur -29.4271 -5.12903 -17.5401
ltibia 54.8571
lfoot -17.544 -25.9565
ltoes 4.72296
166
root 6.66602 17.1449 -13.5805 20.9455 13.0242 3.48762
lowerback 25.6643 5.47322 -5.55676
upperback 8.08986 5.79851 1.41128
thorax -5.86844 2.80379 2.95094
lowerneck -25.8306 -6.62787 -1.25717
upperneck 26.4842 -10.1308 3.95819
head 13.5409 -3.90676 -0.150098
rclavicle -3.18055e-015 -1.82882e-014
rhumerus 24.1628 -4.83306 -66.584
rradius 26.0975
rwrist 15.9425
rhand -33.2487 -12.9325
rfingers 7.12502
rthumb -6.45435 -42.8142
lclavicle -3.18055e-015 -1.82882e-014
lhumerus -20.4378 -16.3789 80.8497
lradius 39.9077
lwrist 21.5563
lhand -22.838 10.1574
lfingers 7.12502
lthumb 3.59955 40.1067
rfemur -82.3385 2.19137 2.33444
rtibia 82.8139
rfoot -9.79113 17.0932
rtoes -11.45
lfemur -28.3978 -5.53142 -17.4603
ltibia 55.8391
lfoot -16.5139 -27.1969
ltoes 6.43006
167
root 6.66435 17.0086 -13.31 20.5893 13.3373 3.64931
lowerback 25.3597 5.43583 -5.77974
upperback 8.04332 5.72301 1.43685
thorax -5.78468 2.76954 3.14598
lowerneck -25.7442 -6.54303 -0.880157
upperneck 26.8067 -9.99258 3.36767
head 13.5887 -3.8844 -0.413405
rclavicle 5.96354e-014 1.82882e-014
rhumerus 23.7087 -3.84282 -65.4286
rradius 26.8122
rwrist 15.2201
rhand -34.1869 -12.959
rfingers 7.12502
rthumb -7.35997 -42.811
lclavicle 5.96354e-014 1.82882e-014
lhumerus -19.115 -16.2895 79.7878
lradius 40.5598
lwrist 21.2287
lhand -22.6292 9.54281
lfingers 7.12502
lthumb 3.80119 39.4887
rfemur -81.413 2.30865 2.64983
rtibia 81.6653
rfoot -8.77791 17.8027
rtoes -9.28165
lfemur -27.3431 -5.9101 -17.3307
ltibia 56.7624
lfoot -16.2199 -28.2502
ltoes 6.53169
168
root 6.66151 16.878 -13.0319 20.2139 13.6319 3.78938
lowerback 25.118 5.3731 -5.92823
upperback 7.94767 5.62464 1.41583
thorax -5.77189 2.72624 3.24879
lowerneck -25.6692 -6.5242 -1.02904
upperneck 27.2611 -9.93613 3.37157
head 13.7732 -3.85815 -0.381605
rclavicle -5.56597e-015 -3.18055e-015
rhumerus 23.2048 -2.83489 -64.3668
rradius 27.5745
rwrist 14.2523
rhand -35.2867 -12.7514
rfingers 7.12502
rthumb -8.42142 -42.5635
lclavicle -5.56597e-015 -3.18055e-015
lhumerus -17.7195 -16.2375 78.5766
lradius 41.5654
lwrist 21.1427
lhand -23.1261 8.65032
lfingers 7.12502
lthumb 3.32133 38.6042
rfemur -80.4242 2.47983 2.92383
rtibia 80.4586
rfoot -8.80918 19.2139
rtoes -8.47318
lfemur -26.1134 -6.23771 -17.1859
ltibia 57.4435
lfoot -15.7315 -29.3637
ltoes 6.87197
169
root 6.65603 16.7253 -12.7522 19.8261 13.8912 3.8916
lowerback 24.8386 5.33248 -6.06418
upperback 7.88721 5.56126 1.40007
thorax -5.70388 2.69795 3.34282
lowerneck -25.7551 -6.39703 -0.643076
upperneck 27.6861 -9.76519 2.83947
head 13.9061 -3.80439 -0.627273
rclavicle 3.73715e-014 1.59028e-015
rhumerus 22.5837 -1.52965 -62.9836
rradius 28.6274
rwrist 12.6327
rhand -36.2665 -12.8322
rfingers 7.12502
rthumb -9.36697 -42.604
lclavicle 3.73715e-014 1.59028e-015
lhumerus -16.1396 -16.2964 77.2478
lradius 43.0921
lwrist 21.7025
lhand -24.5662 8.2491
lfingers 7.12502
lthumb 1.93051 38.2201
rfemur -79.6674 2.75638 3.17541
rtibia 79.5355
rfoot -8.06773 20.8891
rtoes -6.22687
lfemur -24.7907 -6.58515 -16.9763
ltibia 57.9287
lfoot -15.0119 -30.4433
ltoes 7.66689
170
root 6.64817 16.6205 -12.4637 19.443 14.1149 3.97781
lowerback 24.5261 5.32169 -6.25676
upperback 7.80946 5.52651 1.40465
thorax -5.6475 2.68366 3.48309
lowerneck -25.8274 -6.26878 -0.26431
upperneck 28.0873 -9.60227 2.35437
head 14.0331 -3.74912 -0.856082
rclavicle 2.78299e-014 -2.46493e-014
rhumerus 21.9583 -0.00794607 -61.3683
rradius 29.7793
rwrist 10.6825
rhand -36.3384 -12.6274
rfingers 7.12502
rthumb -9.43636 -42.3962
lclavicle 2.78299e-014 -2.46493e-014
lhumerus -14.3912 -16.3896 75.8425
lradius 45.0344
lwrist 22.6008
lhand -26.5088 9.3249
lfingers 7.12502
lthumb 0.0543595 39.3046
rfemur -79.2045 3.23006 2.81362
rtibia 79.2246
rfoot -5.18055 20.6774
rtoes -3.76091
lfemur -23.25 -6.86224 -16.7809
ltibia 58.0316
lfoot -14.1372 -31.3873
ltoes 8.59211
171
root 6.63634 16.544 -12.1677 19.0714 14.3259 4.09685
lowerback 24.2561 5.34145 -6.47597
upperback 7.70838 5.51922 1.37688
thorax -5.63907 2.68394 3.59082
lowerneck -25.8573 -6.27087 -0.448882
upperneck 28.4816 -9.65233 2.64107
head 14.2431 -3.73026 -0.731613
rclavicle -4.29375e-014 4.6118e-014
rhumerus 21.204 1.31535 -59.9788
rradius 31.0042
rwrist 9.27671
rhand -36.3193 -12.8477
rfingers 7.12502
rthumb -9.41791 -42.6173
lclavicle -4.29375e-014 4.6118e-014
lhumerus -12.3525 -16.3268 74.3117
lradius 47.1685
lwrist 23.669
lhand -27.6254 9.10895
lfingers 7.12502
lthumb -1.02414 39.0862
rfemur -79.4123 3.49031 3.2455
rtibia 79.9466
rfoot -9.2271 19.0224
rtoes -8.23561
lfemur -21.5307 -7.08061 -16.6267
ltibia 57.8614
lfoot -13.4483 -32.2177
ltoes 9.2609
172
root 6.62232 16.4245 -11.8658 18.7876 14.5425 4.29275
lowerback 23.9449 5.37807 -6.71725
upperback 7.54541 5.5268 1.29452
thorax -5.67606 2.69408 3.64668
lowerneck -25.7965 -6.32372 -0.567254
upperneck 28.826 -9.80301 2.93481
head 14.4136 -3.74932 -0.629548
rclavicle 1.98785e-014 -3.33958e-014
rhumerus 20.3361 3.03293 -58.084
rradius 32.3106
rwrist 7.72947
rhand -36.4113 -13.3896
rfingers 7.12502
rthumb -9.50668 -43.1552
lclavicle 1.98785e-014 -3.33958e-014
lhumerus -10.1733 -16.407 72.6187
lradius 49.6672
lwrist 25.3977
lhand -28.2655 8.17494
lfingers 7.12502
lthumb -1.64233 38.1484
rfemur -79.8443 3.60924 2.95402
rtibia 80.9906
rfoot -9.06891 18.953
rtoes -8.03666
lfemur -19.8788 -7.16359 -16.5559
ltibia 57.6592
lfoot -13.1663 -32.8856
ltoes 9.24785
